<?xml version="1.0" encoding="UTF-8" standalone="no"?>
<!-- Created with Inkscape (http://www.inkscape.org/) -->

<svg
   width="195.26529mm"
   height="154.28098mm"
   viewBox="0 0 195.26529 154.28098"
   version="1.1"
   id="svg5"
   xml:space="preserve"
   xmlns="http://www.w3.org/2000/svg"
   xmlns:svg="http://www.w3.org/2000/svg"><defs
     id="defs2"><filter
       style="color-interpolation-filters:sRGB"
       id="filter293"
       x="-0.045433302"
       y="-0.059343659"
       width="1.1287277"
       height="1.1681404"><feFlood
         flood-opacity="0.498039"
         flood-color="rgb(0,0,0)"
         result="flood"
         id="feFlood283" /><feComposite
         in="flood"
         in2="SourceGraphic"
         operator="in"
         result="composite1"
         id="feComposite285" /><feGaussianBlur
         in="composite1"
         stdDeviation="3"
         result="blur"
         id="feGaussianBlur287" /><feOffset
         dx="6"
         dy="6"
         result="offset"
         id="feOffset289" /><feComposite
         in="SourceGraphic"
         in2="offset"
         operator="over"
         result="composite2"
         id="feComposite291" /></filter></defs><g
     id="layer1"
     transform="translate(-31.646848,-102.9078)"><path
       style="fill:#0d0f0c;stroke:none;stroke-width:0.264583"
       d="m 176.23202,159.31547 c 0.6731,-2.46644 2.95063,-5.84888 2.26536,-8.46667 -0.57282,-2.18995 -2.71568,-2.64265 -4.64661,-2.64583 h -13.49375 -9.525 c -1.48643,5.3e-4 -3.0742,-0.0415 -3.96875,1.32292 -3.31047,-1.61899 -6.40583,-1.32292 -10.05417,-1.32292 h -14.02291 c -2.26113,0 -6.27804,-0.77126 -8.15314,0.70194 -1.2147,0.95435 -1.64386,2.67123 -2.15159,4.06056 -1.24513,3.40731 -5.48428,11.2612 -2.29103,14.44784 1.64201,1.63856 5.43931,0.89799 7.56867,0.89799 0,3.36524 0.55589,7.28213 -0.10027,10.58334 -0.85329,4.29286 -3.25173,8.64473 -4.87389,12.7 -0.66226,1.65549 -1.90633,7.12284 -4.28625,6.6376 -1.64518,-0.33523 -2.42068,-2.09047 -3.0226,-3.4626 -1.38245,-3.15199 -2.7358,-6.32884 -4.01532,-9.525 -0.42069,-1.05066 -1.5711,-2.79347 -1.39356,-3.94097 0.32359,-2.09259 5.11413,-2.64081 6.291,-4.34816 0.90858,-1.31789 0.55298,-3.42768 0.55298,-4.94004 v -11.1125 c 0,-1.55496 0.28575,-3.5896 -0.72179,-4.91093 -1.04246,-1.3671 -2.89639,-2.26377 -4.3053,-3.20305 -2.5527,-1.7018 -5.30251,-4.36403 -8.20208,-5.38744 -3.5388,-1.2491 -5.75627,4.37568 -8.99583,4.18782 -2.44713,-0.14208 -4.70297,-3.28956 -7.14375,-3.97139 -1.66238,-0.46435 -3.82032,0.0558 -5.55625,0.0558 -5.26997,0 -10.98682,0.37279 -16.13958,1.5576 -2.12355,0.48842 -5.169169,0.99668 -6.177231,3.20595 -2.276475,4.98899 5.475291,4.06771 5.643031,7.93644 0.58526,13.50354 0.49689,27.24574 0.5342,40.74584 -1.7743,-1.24963 -3.353069,-3.60284 -5.556254,-4.12142 -2.67626,-0.62997 -6.099704,2.58895 -8.202083,3.9079 -0.907521,0.56938 -1.976437,1.18083 -2.183871,2.33124 -0.257439,1.42743 0.845609,3.02101 1.455738,4.23228 1.843352,3.66024 4.611158,7.76022 8.136466,9.98431 1.630362,1.0287 3.187964,0.21008 4.762504,-0.52123 3.15198,-1.46394 6.2095,-3.24908 8.99583,-5.32871 0.91916,-0.68606 2.24234,-2.13651 3.43958,-2.21932 1.15861,-0.0802 2.5228,1.28058 3.43958,1.8706 2.177,1.4015 5.09535,3.56394 7.67292,4.04442 4.46484,0.83238 8.38279,-6.44234 12.7,-6.76724 1.15438,-0.0868 2.0955,1.33588 2.79823,2.06719 1.58406,1.64914 4.09073,4.42965 6.46219,4.81409 2.18254,0.35401 5.31071,-2.89428 7.14375,-3.97536 0.69506,1.97828 2.68605,1.85128 4.49791,1.85208 h 12.96459 32.27916 c 4.39685,0 10.68308,1.13982 14.8127,-0.48022 2.38416,-0.93504 3.62294,-5.1226 3.97272,-7.45728 4.20317,2.33997 8.31929,4.96332 12.43541,7.46204 1.39621,0.84746 3.56209,2.84771 5.29167,2.68976 2.65536,-0.24263 6.2775,-3.66581 8.46667,-5.12472 3.80047,-2.53285 10.61614,-6.07986 12.6566,-10.31981 0.90647,-1.88383 0.30798,-5.08449 0.30798,-7.14269 0,-5.83088 -0.26459,-11.62923 -0.26459,-17.4625 0,-4.54316 0.34317,-9.24665 -0.18891,-13.75833 -0.13044,-1.1049 0.13467,-2.38654 -0.27199,-3.43852 -0.56092,-1.45071 -2.31643,-2.38946 -3.50785,-3.27396 -2.76886,-2.05607 -5.65785,-3.95023 -8.46666,-5.95021 -1.26339,-0.89959 -2.90513,-2.43337 -4.49792,-2.61223 -2.13148,-0.23945 -4.69212,2.17514 -6.35,3.28057 -4.89796,3.26522 -9.93563,6.32301 -14.81666,9.6131 m 20.6375,-10.67779 c 1.20147,-0.0944 2.5101,1.14062 3.43958,1.77297 2.60032,1.76954 5.13979,3.63194 7.67291,5.49593 0.89139,0.6559 2.30744,1.32318 2.75088,2.3966 0.98345,2.38098 0.15954,6.64104 0.15954,9.21437 0,6.88023 0.26406,13.77871 0.26458,20.6375 2.7e-4,2.55403 0.9025,7.23371 -0.27199,9.52103 -1.2864,2.50561 -5.69383,4.64609 -7.93009,6.32037 -2.19498,1.64359 -4.43362,3.22527 -6.61458,4.88765 -0.73819,0.5625 -1.91664,1.75392 -2.91042,1.71741 -1.1766,-0.0431 -2.51566,-1.67852 -3.43958,-2.3286 -2.62546,-1.84679 -5.31654,-3.59992 -7.9375,-5.45359 -0.96705,-0.68368 -2.55032,-1.35864 -3.01546,-2.51804 -0.50059,-1.24857 -0.15954,-3.1451 -0.15954,-4.47331 v -10.31875 -17.72708 c 0,-1.73805 -0.66993,-5.24457 0.27199,-6.74291 0.65855,-1.04801 2.1762,-1.74942 3.16759,-2.44343 2.30135,-1.61104 4.59238,-3.24246 6.87917,-4.87388 1.92775,-1.37531 5.27579,-4.89533 7.67292,-5.08424 M 93.9466,177.8363 c 2.41406,5.79808 5.13398,11.5443 7.86924,17.19792 1.66158,3.43482 2.54794,6.27883 6.68285,7.14375 -0.57494,2.4167 -3.34963,3.87906 -5.02682,5.55651 -0.84746,0.8472 -1.64624,2.07725 -2.66991,2.70854 -0.78105,0.48207 -1.44357,0.18204 -2.08889,-0.36777 -4.99374,-4.25317 -6.90721,-13.11619 -9.26438,-19.00978 -1.07421,-2.68579 -2.74585,-5.60414 -3.175,-8.46667 -1.0795,0.19183 -2.50376,0.57415 -3.06017,1.62269 -1.58592,2.98847 -0.11589,8.80878 -0.11483,12.13565 5.3e-4,1.33429 -0.25374,2.99746 0.34872,4.23333 0.74374,1.52559 2.38416,2.52756 3.88461,3.175 v 0.52917 c -1.77747,1.04854 -3.48377,2.09576 -5.02708,3.48482 -0.91917,0.82709 -1.92696,2.35612 -3.175,2.67679 -1.74572,0.44847 -5.57795,-3.66024 -7.14375,-4.62412 -0.56991,-0.35084 -2.00184,-0.92207 -1.87299,-1.78091 0.26988,-1.79626 3.2049,-2.50322 3.43271,-4.78367 0.84481,-8.46058 0.0278,-17.42228 0.0278,-25.92916 0,-4.14417 0.81941,-9.79805 -0.43736,-13.75728 -0.66596,-2.09788 -3.25093,-2.83183 -5.11889,-3.44064 v 33.3375 c 0,4.90855 0.62679,10.88919 -2.95937,14.80635 -2.59291,2.83183 -6.43413,5.03078 -9.74063,6.92917 -1.13136,0.64929 -2.592125,1.8333 -3.968752,1.72429 -2.864114,-0.22648 -5.773737,-4.81542 -7.054585,-7.05564 -0.457994,-0.80143 -1.369748,-2.14472 -0.864129,-3.08796 0.396875,-0.74083 1.422135,-1.15834 2.097881,-1.59305 0.985573,-0.63394 2.461683,-2.01189 3.693583,-2.00343 1.658409,0.0114 3.772694,4.20053 4.818322,5.36152 1.43352,1.592 3.93145,3.31152 5.08688,0.26061 1.06786,-2.81966 0.15955,-7.56443 0.15955,-10.57936 0,-8.38174 -0.26459,-16.76876 -0.26459,-25.13542 0,-2.83606 -1.10357,-8.57937 0.272,-11.06752 1.2774,-2.31087 4.63153,-3.91609 6.60717,-5.60123 -5.10487,1.96903 -8.79687,1.29752 -14.022915,0.52917 0.817562,-1.33747 3.049325,-1.4896 4.497915,-1.79625 4.26138,-0.9025 8.62383,-1.11417 12.96458,-1.11417 l -1.32291,4.49792 c 2.30584,-1.09061 6.17299,-5.05513 8.73125,-4.85695 1.49066,0.11562 3.1488,1.80578 4.23227,2.71938 1.03293,0.87075 1.6719,1.65603 2.11773,2.93132 2.32886,-1.10172 4.49447,-2.77892 6.61458,-4.24021 0.87154,-0.60061 2.02274,-1.79414 3.175,-1.64994 1.45256,0.1815 3.08874,1.905 4.23333,2.74584 1.64915,1.21153 4.49898,2.48232 5.54884,4.28202 1.30837,2.24287 0.26776,7.65334 0.272,10.23937 0.003,1.77033 1.00012,4.93184 -0.007,6.5114 -1.28297,2.0111 -6.76857,3.8317 -8.98843,4.6011 m 50.00625,-27.51666 -6.23861,14.81666 -15.19264,36.77709 c 3.742,0.59557 11.29586,-0.0823 14.55182,-2.11535 1.67428,-1.0451 3.20569,-6.10446 5.5163,-5.09534 1.30386,0.56938 0.33311,2.33442 -0.0106,3.24194 -0.95699,2.52703 -1.82588,5.11042 -2.68313,7.67291 -0.30904,0.92366 -0.5895,2.56567 -1.57216,3.01546 -1.95157,0.8935 -5.72505,0.15954 -7.86474,0.15954 h -19.05 l 4.65032,-12.17083 10.01316,-25.13542 6.23861,-14.81666 c -4.24286,0 -10.22536,-0.76253 -14.01895,1.46367 -1.53617,0.90144 -2.91597,5.95445 -4.72837,5.21388 -1.20809,-0.49345 -0.64744,-2.05581 -0.3765,-2.97339 0.72998,-2.47438 1.49357,-4.95194 2.2815,-7.40833 0.30083,-0.93768 0.56436,-2.22647 1.5531,-2.67414 1.98358,-0.89773 5.46233,-0.23628 7.6163,-0.23628 6.05393,0 13.42707,-1.13717 19.31458,0.26459 m 31.75,0 -6.91621,15.875 -9.43795,23.54791 -4.81251,12.43542 c 4.19365,-0.52996 9.72715,-0.0431 13.49349,-2.21377 2.06825,-1.19168 2.62175,-6.08912 5.27632,-5.37475 1.46711,0.39476 0.77496,2.08386 0.45376,3.0906 -0.87286,2.73606 -1.75551,5.47132 -2.64213,8.20209 -0.29448,0.90699 -0.43312,2.35188 -1.30942,2.903 -1.55443,0.97817 -5.26495,0.272 -7.06993,0.272 -6.08621,0 -12.79658,-0.85461 -18.78542,0 l 1.14274,-4.49792 3.93435,-10.05417 9.89912,-25.13541 5.13212,-12.7 c -3.85656,0 -9.49642,-0.77047 -12.96458,1.19935 -1.92458,1.09326 -2.89454,6.10421 -5.01174,5.59171 -1.28587,-0.31142 -1.12421,-1.82457 -0.87259,-2.82231 0.62997,-2.49899 1.53485,-4.96623 2.35664,-7.40834 0.31009,-0.92101 0.57468,-2.27224 1.48378,-2.79558 1.75604,-1.0115 5.10355,-0.37942 7.07099,-0.37942 h 12.96459 c 2.12116,0 4.57279,-0.33893 6.61458,0.26459 m 16.40417,5.88274 c -5.29564,0.86863 -3.43959,8.19203 -3.43959,11.84434 v 19.57917 c 0,2.37939 -0.74004,6.22988 0.15955,8.43915 0.36724,0.90117 1.43801,1.35599 2.2217,1.82668 1.8669,1.1213 5.42449,4.31747 7.67292,4.08199 4.14787,-0.43418 2.64583,-8.03831 2.64583,-10.90824 v -19.31458 c 0,-3.01943 0.49927,-7.10274 -0.34872,-9.99861 -0.23574,-0.80539 -1.11866,-1.21232 -1.76821,-1.64385 -1.64227,-1.09088 -5.06121,-4.24762 -7.14348,-3.90605 M 82.83412,179.95297 c 2.62546,-0.45217 9.0596,-2.98476 10.15921,-5.60493 0.83211,-1.98358 0.15954,-5.48164 0.15954,-7.62424 0,-1.6211 0.57759,-4.64581 -0.42412,-6.00604 -1.84362,-2.50269 -7.64884,-6.54843 -9.73508,-2.09285 -0.42413,0.90567 -0.15955,2.35849 -0.15955,3.33639 v 7.9375 10.05417 m 67.20417,-11.64167 c 0,6.84583 0.37571,12.67011 -2.34156,19.05 -0.56648,1.3298 -1.14248,4.15211 -2.3413,5.01862 -1.23772,0.89482 -3.82879,-0.35639 -5.37025,0.27543 -1.96612,0.80592 -2.1754,3.23585 -3.97378,4.18465 -1.96717,1.0377 -4.50823,0.33946 -6.61061,0.84005 l 2.36723,-6.87916 5.62398,-14.81667 3.04244,-7.40092 2.72468,-0.272 z"
       id="path216" /></g></svg>
