<?xml version="1.0" encoding="UTF-8" standalone="no"?>
<!-- Created with Inkscape (http://www.inkscape.org/) -->

<svg
   width="210mm"
   height="297mm"
   viewBox="42 120 166 132"
   version="1.1"
   id="svg5"
   xml:space="preserve"
   inkscape:version="1.2.2 (b0a8486, 2022-12-01)"
   sodipodi:docname="jrzzo.svg"
   xmlns:inkscape="http://www.inkscape.org/namespaces/inkscape"
   xmlns:sodipodi="http://sodipodi.sourceforge.net/DTD/sodipodi-0.dtd"
   xmlns="http://www.w3.org/2000/svg"
   xmlns:svg="http://www.w3.org/2000/svg"><sodipodi:namedview
     id="namedview7"
     pagecolor="#ffffff"
     bordercolor="#000000"
     borderopacity="0.25"
     inkscape:showpageshadow="2"
     inkscape:pageopacity="0.0"
     inkscape:pagecheckerboard="0"
     inkscape:deskcolor="#d1d1d1"
     inkscape:document-units="mm"
     showgrid="false"
     inkscape:zoom="0.2102413"
     inkscape:cx="-877.56306"
     inkscape:cy="561.25984"
     inkscape:window-width="1309"
     inkscape:window-height="456"
     inkscape:window-x="0"
     inkscape:window-y="25"
     inkscape:window-maximized="0"
     inkscape:current-layer="layer1" /><defs
     id="defs2"><filter
       style="color-interpolation-filters:sRGB;"
       inkscape:label="Drop Shadow"
       id="filter293"
       x="-0.045433302"
       y="-0.059343659"
       width="1.1287277"
       height="1.1681404"><feFlood
         flood-opacity="0.498039"
         flood-color="rgb(0,0,0)"
         result="flood"
         id="feFlood283" /><feComposite
         in="flood"
         in2="SourceGraphic"
         operator="in"
         result="composite1"
         id="feComposite285" /><feGaussianBlur
         in="composite1"
         stdDeviation="3"
         result="blur"
         id="feGaussianBlur287" /><feOffset
         dx="6"
         dy="6"
         result="offset"
         id="feOffset289" /><feComposite
         in="SourceGraphic"
         in2="offset"
         operator="over"
         result="composite2"
         id="feComposite291" /></filter></defs><g
     inkscape:label="Layer 1"
     inkscape:groupmode="layer"
     id="layer1"><path
       style="fill:#f8f4f0;stroke-width:0.176389"
       d="m 200.86179,247.63055 c 0.24254,-0.0777 0.71879,-0.14 1.05834,-0.13852 l 0.61736,0.003 -0.70556,0.14594 c -0.38805,0.0803 -0.8643,0.1426 -1.05833,0.13852 -0.28531,-0.006 -0.26845,-0.0344 0.0882,-0.14864 z m 3.6711,-0.12049 c 0.12733,-0.051 0.27947,-0.0447 0.33808,0.0139 0.0586,0.0586 -0.0456,0.10031 -0.23151,0.0926 -0.20549,-0.008 -0.24728,-0.0503 -0.10657,-0.10657 z m -1.59853,-0.17272 c 0.12127,-0.0489 0.31971,-0.0489 0.44098,0 0.12126,0.0489 0.022,0.089 -0.22049,0.089 -0.24253,0 -0.34175,-0.04 -0.22049,-0.089 z M 51.71872,174.71127 c -0.579503,-0.25246 -2.424693,-2.22824 -3.449227,-3.69334 -0.929361,-1.32901 -1.953136,-3.31493 -1.848912,-3.58653 0.04963,-0.12934 0.42999,-0.45323 0.84524,-0.71974 0.415249,-0.26652 1.194017,-0.80208 1.730595,-1.19013 1.411223,-1.0206 1.677963,-1.14653 2.428593,-1.14653 0.818372,0 1.136206,0.30949 2.64423,2.57482 1.186297,1.78203 2.549994,3.11475 3.103898,3.03337 0.22016,-0.0323 0.52357,-0.38302 0.8041,-0.92938 l 0.450528,-0.87744 0.02934,-16.69748 0.02934,-16.69747 0.482952,-0.76953 c 0.494875,-0.78853 1.936722,-2.24687 2.270614,-2.29659 0.102503,-0.0153 -0.329567,-0.091 -0.960157,-0.16821 -0.63059,-0.0772 -1.74184,-0.22847 -2.469445,-0.33604 -0.727604,-0.10757 -2.037291,-0.25015 -2.910416,-0.31685 -1.571339,-0.12005 -1.588074,-0.12628 -1.643864,-0.61204 -0.08485,-0.73885 0.330472,-1.50519 0.936095,-1.72722 1.156465,-0.42398 9.908944,-1.57583 11.996658,-1.57879 0.388055,-5.3e-4 0.82034,-0.0736 0.960635,-0.16238 0.367667,-0.23261 0.891676,0.1028 0.890286,0.56987 -7.06e-4,0.21486 -0.163523,0.62879 -0.361963,0.91983 -0.198441,0.29104 -0.603385,1.00033 -0.899877,1.5762 -0.522286,1.01442 -0.526121,1.03869 -0.123108,0.779 3.814156,-2.45769 5.290819,-3.32534 5.659452,-3.32534 0.242358,0 0.74029,0.23813 1.106519,0.52917 0.36623,0.29104 0.721408,0.52917 0.789286,0.52917 0.188306,0 2.761488,2.5122 2.956474,2.88641 0.163196,0.3132 0.211781,0.30618 1.025789,-0.14828 1.486112,-0.82968 3.051392,-2.03259 4.274762,-3.28512 1.469778,-1.50482 1.735014,-1.53585 3.078498,-0.3602 0.538452,0.47119 1.245332,1.04283 1.570847,1.27032 0.325515,0.22749 0.631532,0.45905 0.680039,0.51459 0.04851,0.0555 1.021898,0.71864 2.163092,1.47358 1.141196,0.75494 2.232602,1.54189 2.425348,1.74878 0.336467,0.36115 0.350225,0.62994 0.34484,6.737 -0.0042,4.72653 -0.06082,6.43066 -0.220486,6.63259 -0.424574,0.53697 -1.533407,1.25787 -3.415455,2.22053 -1.053084,0.53865 -2.048664,1.09904 -2.212399,1.24531 -0.349435,0.31217 -0.351241,0.30592 0.894535,3.09555 0.205317,0.45976 0.373303,0.8841 0.373303,0.94297 0,0.0589 0.277812,0.69249 0.617361,1.40802 0.339549,0.71553 0.617361,1.35076 0.617361,1.41162 0,0.11731 0.201426,0.59306 0.948953,2.24136 0.254187,0.56048 0.462158,1.05744 0.462158,1.10435 0,0.0822 0.268715,0.70123 1.166746,2.68801 0.231415,0.51197 0.420754,1.00525 0.420754,1.09617 0,0.19733 0.792741,1.65408 1.274793,2.34258 0.456185,0.65156 1.545673,1.18663 2.416141,1.18663 0.534704,0 0.754054,0.0891 0.902554,0.36656 0.290079,0.54202 0.137532,0.7539 -1.186275,1.64768 -2.000711,1.3508 -3.077574,2.18067 -4.104455,3.16305 -1.234583,1.18107 -1.821798,1.56307 -2.187217,1.42285 -0.158583,-0.0608 -0.752084,-0.57583 -1.31889,-1.1444 -0.921113,-0.92398 -2.073922,-2.85055 -2.684057,-4.4856 -0.0724,-0.19403 -0.326136,-0.78934 -0.563848,-1.32291 -0.237712,-0.53358 -0.810512,-1.96233 -1.272887,-3.175 -0.462376,-1.21268 -0.943222,-2.44299 -1.068548,-2.73403 -0.570246,-1.32428 -0.83614,-1.99697 -1.080673,-2.73403 -0.144839,-0.43656 -0.406291,-1.11125 -0.581008,-1.4993 -0.174715,-0.38806 -0.378989,-0.90285 -0.45394,-1.14398 -0.07495,-0.24112 -0.382141,-0.75706 -0.682643,-1.14652 -0.300501,-0.38947 -0.554223,-0.72838 -0.563827,-0.75315 -0.0096,-0.0248 -0.347116,0.13398 -0.750025,0.35278 l -0.732562,0.39781 -0.0014,5.47687 c -8.82e-4,3.11046 0.06889,5.54928 0.16136,5.64445 0.08955,0.0922 0.188768,0.40569 0.220486,0.69673 0.05773,0.52973 0.240007,0.68394 2.297792,1.94393 0.320154,0.19603 0.587133,0.47384 0.593286,0.61736 0.0148,0.3453 -0.442911,0.8783 -0.75423,0.8783 -0.669629,0 -3.142116,1.68349 -4.840152,3.29562 -0.645411,0.61275 -1.271544,1.1141 -1.391405,1.1141 -0.119863,0 -0.804064,-0.45641 -1.520448,-1.01424 -0.716384,-0.55783 -2.233376,-1.61478 -3.371093,-2.34878 -1.923523,-1.24097 -2.072226,-1.37704 -2.120583,-1.94028 -0.04576,-0.53307 0.02142,-0.64523 0.560065,-0.93508 0.759215,-0.40852 1.369016,-1.04573 1.879237,-1.9637 l 0.392158,-0.70556 -0.115589,-9.17222 C 69.671158,150.59903 69.603915,143.9721 69.5853,140.91724 l -0.03384,-5.55428 -0.581801,-0.64398 c -0.319991,-0.35419 -1.036876,-0.95039 -1.593076,-1.32489 -0.556201,-0.37449 -1.107969,-0.79996 -1.226151,-0.94548 -0.169291,-0.20845 -0.216066,3.05461 -0.220486,15.38163 -0.0031,8.60542 -0.07483,15.82854 -0.15944,16.05139 -0.08461,0.22285 -0.252492,0.72268 -0.373078,1.11073 -0.527952,1.69898 -1.295506,2.94308 -2.702507,4.38041 -0.920211,0.94004 -3.09178,2.62639 -4.200921,3.26225 -0.327448,0.18773 -1.066826,0.62845 -1.643066,0.97939 -2.064198,1.25713 -3.875618,1.64427 -5.13217,1.09686 z m 3.357656,-0.99232 c 1.098645,-0.51502 3.886761,-2.26126 5.291666,-3.31427 2.061219,-1.54492 3.691903,-3.63335 4.271905,-5.47107 0.142894,-0.45276 0.347726,-1.10101 0.455184,-1.44055 0.133845,-0.42294 0.225739,-5.67254 0.291782,-16.66875 l 0.09641,-16.05139 0.470504,-0.97014 c 0.258776,-0.53358 0.680053,-1.27804 0.936169,-1.65436 0.376608,-0.55336 0.404695,-0.659 0.146858,-0.55238 -0.175344,0.0725 -1.36991,0.19536 -2.654589,0.27302 -1.284679,0.0777 -2.554679,0.1867 -2.822222,0.24232 -0.267543,0.0556 -1.200817,0.1899 -2.073942,0.2984 -4.961631,0.61655 -5.261894,0.69649 -5.407198,1.43969 -0.05388,0.27561 0.135985,0.3215 1.656997,0.40051 0.94482,0.0491 1.92233,0.16697 2.172247,0.26198 0.249915,0.095 0.74688,0.17321 1.104367,0.17375 0.357486,5.3e-4 0.962436,0.0877 1.344334,0.19376 0.85624,0.23772 1.741527,-0.009 2.987065,-0.83347 0.89109,-0.58964 1.34566,-0.61114 1.34566,-0.0636 0,0.39509 -0.73516,1.02463 -2.066785,1.76986 -1.229669,0.68817 -2.383782,1.74195 -3.070423,2.80349 l -0.507236,0.78419 -0.0039,16.67831 c -0.0037,15.91011 -0.01907,16.71177 -0.333691,17.4046 -1.073051,2.36294 -3.036048,1.44963 -5.647455,-2.62758 -0.421222,-0.65765 -0.982096,-1.34971 -1.246385,-1.5379 l -0.480528,-0.34217 -0.95063,0.57565 c -0.522848,0.3166 -1.31615,0.84991 -1.762894,1.18512 -0.446745,0.33522 -0.957691,0.69436 -1.135435,0.7981 -0.302537,0.17657 -0.279802,0.26668 0.356025,1.41111 0.373559,0.67237 0.844817,1.4449 1.047241,1.71672 0.708213,0.951 2.626092,3.03639 3.082516,3.35174 0.607109,0.41947 1.923027,0.32006 3.10636,-0.23465 z m 20.211598,-2.01354 c 1.264222,-1.19261 2.700022,-2.19154 4.055331,-2.82143 l 0.807207,-0.37515 -1.191483,-0.67935 c -1.802414,-1.0277 -1.896963,-1.45112 -1.953059,-8.74615 -0.02052,-2.66788 0.01934,-5.01756 0.08857,-5.2215 0.152141,-0.4482 1.662732,-1.30489 2.30091,-1.30489 0.35091,0 0.515195,0.13484 0.698459,0.57327 0.131795,0.31529 0.367454,0.67927 0.523687,0.80883 0.156231,0.12957 0.573869,1.00269 0.928082,1.94028 0.354212,0.93759 0.794306,2.04119 0.977987,2.45244 0.183679,0.41125 0.333962,0.79613 0.333962,0.85528 0,0.0592 0.110797,0.35768 0.246216,0.66339 0.135419,0.3057 0.411365,0.99238 0.613214,1.52596 0.515527,1.36277 1.936436,4.90587 2.263622,5.64444 1.259147,2.84233 1.842509,3.8539 2.721486,4.71917 0.516972,0.5089 0.998081,0.92528 1.069136,0.92528 0.07105,0 0.588451,-0.42776 1.149771,-0.95057 1.130498,-1.05293 3.001047,-2.53779 4.408416,-3.49943 l 0.918388,-0.62752 -0.827871,-0.12415 c -1.638295,-0.24568 -2.338098,-0.89702 -3.377008,-3.14315 -0.395287,-0.85461 -0.718703,-1.58648 -0.718703,-1.62637 0,-0.0399 -0.190366,-0.4916 -0.423034,-1.00379 -0.232669,-0.5122 -0.637106,-1.44721 -0.89875,-2.0778 -0.261643,-0.63059 -0.583606,-1.38465 -0.715471,-1.67569 -0.131866,-0.29105 -0.394351,-0.92605 -0.583302,-1.41112 -0.18895,-0.48507 -0.618582,-1.47725 -0.954737,-2.20486 -0.336156,-0.7276 -0.671135,-1.52135 -0.744398,-1.76389 -0.07326,-0.24253 -0.189889,-0.52034 -0.259168,-0.61736 -0.325806,-0.45624 -0.911435,-2.21879 -0.859372,-2.58643 0.04308,-0.30421 0.392167,-0.597 1.332666,-1.11773 0.700862,-0.38806 1.891487,-1.04619 2.645833,-1.46251 0.754347,-0.41633 1.513119,-0.8636 1.686162,-0.99393 0.512124,-0.38574 0.653404,-1.97108 0.654494,-7.34424 l 0.0011,-5.03818 -0.485069,-0.45118 c -0.266788,-0.24815 -1.445936,-1.09032 -2.620329,-1.87148 -1.174392,-0.78117 -2.603142,-1.80714 -3.175,-2.27994 -1.989854,-1.64516 -1.732533,-1.61987 -3.040638,-0.29884 -1.169792,1.18136 -3.81517,3.1341 -5.029747,3.71282 l -0.680642,0.32431 -0.377691,-0.50981 c -0.733408,-0.98996 -2.506832,-2.67445 -3.514459,-3.33821 l -1.020103,-0.67199 -0.743786,0.44616 c -2.078748,1.24691 -4.780788,3.04844 -4.840381,3.22722 -0.03712,0.11136 0.432864,0.56115 1.044413,0.99952 0.611547,0.43838 1.448038,1.14173 1.858869,1.56302 l 0.746963,0.76596 0.0083,15.302 0.0083,15.30199 -0.540893,0.78617 c -0.297492,0.43239 -0.89317,1.05514 -1.323726,1.3839 -0.927278,0.70803 -1.079717,0.50613 1.853447,2.45483 1.115659,0.74121 2.345972,1.62615 2.734027,1.96653 0.388056,0.34039 0.775279,0.62186 0.860496,0.6255 0.08522,0.004 0.696964,-0.50469 1.359436,-1.12963 z m 1.768708,-20.44742 c -0.144023,-0.17353 -0.186926,-2.61999 -0.15389,-8.77534 l 0.04581,-8.53473 1.234722,-0.65589 c 0.679098,-0.36073 1.475141,-0.65839 1.768983,-0.66145 0.570987,-0.006 3.116207,1.53002 4.386806,2.64734 1.139076,1.00166 1.16435,1.1502 1.16435,6.84298 v 5.0975 l -0.661458,0.4374 c -0.363802,0.24057 -1.217083,0.73925 -1.89618,1.10819 -0.679098,0.36893 -1.59191,0.86879 -2.028473,1.1108 -3.00285,1.66465 -3.484012,1.83704 -3.860666,1.3832 z m 2.714138,-1.62638 c 2.111652,-1.11703 4.811904,-2.63742 5.003744,-2.81738 0.03567,-0.0335 0.05126,-2.22002 0.03465,-4.85901 -0.03272,-5.19665 -0.05189,-5.31126 -1.035025,-6.18563 -0.582967,-0.51849 -3.550015,-2.43903 -3.768046,-2.43903 -0.318292,0 -2.083366,0.90603 -2.211804,1.13534 -0.0771,0.13766 -0.118748,3.82585 -0.09255,8.19599 l 0.04763,7.9457 0.657925,-0.30138 c 0.361859,-0.16575 0.975424,-0.46932 1.363479,-0.6746 z M 62.220126,131.30208 c 0,-0.0485 -0.03969,-0.0882 -0.08819,-0.0882 -0.04851,0 -0.08819,0.0397 -0.08819,0.0882 0,0.0485 0.03969,0.0882 0.08819,0.0882 0.04851,0 0.08819,-0.0397 0.08819,-0.0882 z m 0.529166,-0.17638 c 0,-0.0485 -0.03969,-0.0882 -0.08819,-0.0882 -0.04851,0 -0.08819,0.0397 -0.08819,0.0882 0,0.0485 0.03969,0.0882 0.08819,0.0882 0.04851,0 0.08819,-0.0397 0.08819,-0.0882 z m 0.440973,-0.26459 c 0.05996,-0.097 0.06933,-0.17639 0.02082,-0.17639 -0.04851,0 -0.13725,0.0794 -0.197208,0.17639 -0.05996,0.097 -0.06933,0.17639 -0.02082,0.17639 0.04851,0 0.13725,-0.0794 0.197208,-0.17639 z m 0.617361,-0.44097 c 0,-0.0485 -0.03969,-0.0882 -0.08819,-0.0882 -0.04851,0 -0.08819,0.0397 -0.08819,0.0882 0,0.0485 0.03969,0.0882 0.08819,0.0882 0.04851,0 0.08819,-0.0397 0.08819,-0.0882 z m 0.529166,-0.35278 c 0,-0.0485 -0.03969,-0.0882 -0.08819,-0.0882 -0.04851,0 -0.08819,0.0397 -0.08819,0.0882 0,0.0485 0.03969,0.0882 0.08819,0.0882 0.04851,0 0.08819,-0.0397 0.08819,-0.0882 z m 96.460158,41.60491 c -5.47318,-3.67007 -8.46084,-5.76798 -8.6093,-6.04538 -0.0854,-0.15964 -0.15717,-4.65396 -0.15942,-9.98739 -0.002,-5.33343 -0.0594,-11.8016 -0.12711,-14.37372 l -0.12304,-4.67658 0.46466,-0.55222 c 0.25556,-0.30372 1.07987,-1.01707 1.83179,-1.58522 0.75192,-0.56816 1.40681,-1.08013 1.45532,-1.13773 0.0485,-0.0576 1.71538,-1.24494 3.70417,-2.63855 1.98878,-1.39361 3.65566,-2.58634 3.70416,-2.6505 0.27409,-0.36257 2.23208,-1.57342 2.54279,-1.5725 0.20219,5.3e-4 0.59498,0.11966 0.87286,0.26458 0.27788,0.14492 0.58385,0.2635 0.67994,0.2635 0.30072,0 1.96231,0.88794 2.58408,1.38092 0.32685,0.25914 0.77657,0.59022 0.99937,0.73574 1.31382,0.8581 5.71488,4.09337 6.12138,4.49989 l 0.48306,0.48308 0.0461,14.55519 c 0.0325,10.26962 -0.0109,14.69079 -0.14759,15.01572 -0.12599,0.29962 -1.42028,1.31933 -3.70416,2.91837 -1.93075,1.35182 -4.25263,3.01842 -5.15971,3.70356 -3.26932,2.46942 -4.17782,3.08701 -4.54895,3.09236 -0.20754,0.003 -1.51723,-0.75891 -2.91041,-1.69312 z m 6.73106,-1.78512 c 1.91494,-1.43095 3.8916,-2.87955 4.3926,-3.2191 1.63222,-1.10622 4.37997,-3.13886 4.49518,-3.32527 0.13422,-0.21717 0.14163,-28.65687 0.008,-28.98878 -0.051,-0.12633 -0.58591,-0.58536 -1.18863,-1.02007 -5.61815,-4.05211 -7.36348,-5.21708 -8.52455,-5.68997 l -1.28637,-0.52392 -1.63968,1.21901 c -0.90183,0.67046 -2.11593,1.55719 -2.69802,1.97052 -0.58208,0.41333 -1.7727,1.25816 -2.64583,1.87741 -3.87068,2.7452 -5.7078,4.2464 -5.83969,4.77187 -0.0548,0.21824 -0.0527,1.77318 0.005,3.45543 0.0573,1.68225 0.15016,7.99958 0.2064,14.03852 l 0.10225,10.97988 2.32227,1.55843 c 6.31538,4.23813 7.45709,5.01666 7.69584,5.24776 0.5581,0.54024 1.09082,0.26766 4.59612,-2.35172 z m -0.51584,-2.46299 c -0.13614,-0.0539 -1.55348,-1.03928 -3.14964,-2.18976 -1.59616,-1.15047 -2.97757,-2.04514 -3.06978,-1.98815 -0.0922,0.057 -0.34446,0.0593 -0.56052,0.005 -0.85109,-0.21361 -0.87391,-0.58065 -0.94866,-15.25847 l -0.0695,-13.64815 0.39349,-0.41886 c 0.21642,-0.23037 0.47553,-0.41886 0.5758,-0.41886 0.10026,0 0.47719,-0.28795 0.83761,-0.63989 0.56268,-0.54945 0.72579,-0.62028 1.15396,-0.50113 0.27426,0.0763 0.63327,0.12189 0.79779,0.10126 0.16452,-0.0206 0.56139,0.0945 0.88194,0.25591 1.08922,0.54836 5.61382,3.64023 5.87708,4.01607 0.22652,0.32341 0.26199,2.31515 0.26199,14.70897 v 14.33491 l -0.57327,0.55499 c -1.0612,1.02739 -1.76025,1.34266 -2.4083,1.08613 z m 1.59166,-1.4491 0.90196,-0.86939 -0.12938,-5.52471 c -0.0712,-3.03859 -0.13998,-9.31033 -0.15291,-13.9372 -0.0229,-8.18043 -0.0333,-8.42127 -0.37717,-8.73124 -0.38181,-0.34414 -3.55587,-2.48444 -4.84981,-3.27028 -1.05501,-0.64073 -2.07116,-0.65882 -2.64584,-0.0471 -0.22785,0.24253 -0.50566,0.44097 -0.61736,0.44097 -0.1117,0 -0.38792,0.19675 -0.61383,0.43721 l -0.41074,0.43722 0.11659,7.1916 c 0.23647,14.58705 0.3481,19.37289 0.46193,19.80342 0.0853,0.32255 0.25555,0.4566 0.63409,0.49919 0.28464,0.032 0.67627,0.19867 0.8703,0.37032 0.3106,0.2748 2.37681,1.76854 4.83222,3.49341 0.44672,0.31381 0.87201,0.57178 0.9451,0.57327 0.0731,0.001 0.53876,-0.38853 1.03485,-0.86669 z m -69.93206,6.01487 c -0.358048,-0.39564 -0.373709,-1.04335 -0.04166,-1.7229 0.137645,-0.28169 0.702786,-1.62342 1.25587,-2.98161 0.55308,-1.3582 1.14545,-2.78695 1.31636,-3.175 0.17091,-0.38806 0.41442,-0.98337 0.54113,-1.32292 0.1267,-0.33955 0.47989,-1.17299 0.78485,-1.85208 0.30497,-0.6791 0.77695,-1.79035 1.04885,-2.46945 0.2719,-0.6791 0.63503,-1.55534 0.80696,-1.94722 0.17193,-0.39187 0.68357,-1.5825 1.13699,-2.64583 0.89127,-2.09016 1.08254,-2.52481 1.93755,-4.40278 0.30917,-0.6791 0.78757,-1.79035 1.0631,-2.46945 0.27553,-0.67909 0.75458,-1.79034 1.06456,-2.46944 1.38509,-3.03438 1.8463,-4.08315 1.8463,-4.19838 0,-0.0485 0.3175,-0.76897 0.70555,-1.60112 0.38806,-0.83215 0.70556,-1.56634 0.70556,-1.63153 0,-0.0652 0.18896,-0.52332 0.41991,-1.01806 0.87492,-1.87426 1.00621,-2.23183 0.88909,-2.42134 -0.14916,-0.24134 -6.24398,-0.0567 -7.57081,0.22932 -1.42244,0.30665 -2.65835,0.83995 -3.12448,1.3482 -0.41593,0.45352 -1.02066,1.58986 -1.02066,1.9179 0,0.086 -0.22942,0.43121 -0.50983,0.76709 -0.44292,0.53055 -0.61393,0.6107 -1.30303,0.6107 -0.630676,0 -0.868356,-0.0904 -1.159994,-0.44097 -0.201736,-0.24254 -0.369435,-0.63773 -0.372662,-0.87821 -0.005,-0.36896 0.492996,-1.91816 1.050066,-3.26693 0.0801,-0.19403 0.28137,-0.86872 0.44718,-1.49931 0.52956,-2.01394 1.47252,-4.66224 1.72606,-4.84762 0.38183,-0.27919 20.50068,-0.24421 20.78116,0.0361 0.44699,0.44676 0.17356,2.05958 -0.74638,4.40248 -0.48606,1.23791 -1.02984,2.53089 -1.2084,2.87328 -0.40553,0.77762 -0.65215,1.3446 -1.69012,3.88573 -0.45571,1.11566 -0.98703,2.38566 -1.18072,2.82222 -0.19368,0.43657 -0.46735,1.07157 -0.60814,1.41111 -0.1408,0.33955 -0.32209,0.77612 -0.40287,0.97014 -0.0808,0.19403 -0.31354,0.72895 -0.51724,1.18871 -0.20369,0.45976 -0.37035,0.87068 -0.37035,0.91316 0,0.0425 -0.27782,0.67868 -0.61737,1.41378 -0.33954,0.73509 -0.61736,1.37372 -0.61736,1.41917 0,0.0454 -0.20665,0.5412 -0.45922,1.10168 -0.25258,0.56048 -0.5223,1.17781 -0.59938,1.37184 -0.0771,0.19402 -0.26731,0.64258 -0.42272,0.99679 -0.15541,0.35421 -0.28257,0.6892 -0.28257,0.74443 0,0.0552 -0.19118,0.51948 -0.42484,1.03167 -0.23367,0.5122 -0.9151,2.1219 -1.51429,3.57711 -0.59919,1.4552 -1.20986,2.92364 -1.35703,3.26319 -0.32468,0.7491 -0.34496,0.79672 -1.45837,3.42461 -0.48975,1.15593 -0.8532,2.13895 -0.80767,2.18448 0.19623,0.19623 7.201,-0.55667 9.22733,-0.99179 1.23777,-0.26578 1.9638,-1.0455 2.82395,-3.03275 0.59128,-1.36606 1.16545,-1.93733 1.94718,-1.93733 0.55218,0 1.44152,0.84147 1.44152,1.36392 0,0.24784 -0.34586,1.49094 -0.76858,2.76245 -0.42272,1.2715 -0.98931,3.0262 -1.2591,3.89933 -0.81822,2.64804 -1.01603,3.1657 -1.29747,3.39548 -0.20921,0.17082 -2.60085,0.22049 -10.61594,0.22049 -9.798925,0 -10.361331,-0.0171 -10.637819,-0.32257 z m 20.94734,-0.95625 c 0.1338,-0.3153 0.62064,-1.76389 1.08186,-3.2191 0.46122,-1.45521 1.03149,-3.21018 1.26728,-3.89994 0.5338,-1.5616 0.49284,-2.25263 -0.13788,-2.32611 -0.5768,-0.0672 -0.85575,0.27128 -1.49569,1.81482 -0.63609,1.53425 -1.61989,2.56431 -2.72844,2.85671 -1.79969,0.47472 -6.99218,1.11355 -9.05097,1.11355 -1.06786,0 -1.37183,-0.0597 -1.5036,-0.29511 -0.18888,-0.3375 0.15253,-1.45388 1.01342,-3.31385 0.29992,-0.64798 0.54531,-1.20995 0.54531,-1.24881 0,-0.0389 0.19018,-0.48974 0.42263,-1.00193 0.23244,-0.5122 0.99375,-2.32033 1.69179,-4.01808 0.69805,-1.69774 1.40814,-3.4043 1.578,-3.79236 0.16985,-0.38805 0.41439,-0.98337 0.54342,-1.32291 0.12903,-0.33955 0.49875,-1.19863 0.8216,-1.90907 0.32286,-0.71043 0.58701,-1.32324 0.58701,-1.36178 0,-0.0386 0.19063,-0.48916 0.42362,-1.00136 0.233,-0.51219 0.83561,-1.92345 1.33913,-3.13613 0.82646,-1.9904 1.11912,-2.68333 1.60174,-3.79236 0.0844,-0.19403 0.79988,-1.8609 1.58989,-3.70417 0.79001,-1.84326 1.69301,-3.9467 2.00668,-4.6743 0.94122,-2.18331 1.59299,-4.21713 1.40843,-4.39494 -0.0957,-0.0922 -4.40122,-0.18518 -10.04519,-0.21703 l -9.87777,-0.0557 -0.23671,0.70226 c -0.13018,0.38624 -0.5779,1.85319 -0.99492,3.25989 -0.41702,1.40671 -0.92562,2.99421 -1.13022,3.52778 -0.444333,1.15877 -0.472247,1.81404 -0.0908,2.13064 0.47648,0.39544 1.1569,-0.13785 1.60125,-1.25502 0.68916,-1.73266 1.60931,-2.53839 3.58539,-3.13955 1.00487,-0.30569 4.86153,-0.58644 7.22799,-0.52616 2.16757,0.0552 2.20322,0.0627 2.35371,0.49704 0.11953,0.34491 0.0147,0.73891 -0.48111,1.80873 -0.34865,0.75227 -0.63392,1.40212 -0.63392,1.44413 0,0.0848 -1.89423,4.42154 -2.56837,5.88008 -0.23663,0.51198 -0.43024,0.9605 -0.43024,0.99672 0,0.0362 -0.30737,0.72859 -0.68304,1.53859 -0.37568,0.80999 -0.74341,1.67116 -0.81718,1.91369 -0.0738,0.24253 -0.39061,0.9966 -0.70408,1.67569 -1.23433,2.67399 -1.37728,3.00009 -3.42728,7.81858 -0.8802,2.06889 -1.60036,3.79331 -1.60036,3.83204 0,0.0387 -0.22809,0.56849 -0.50685,1.17726 -0.27877,0.60876 -0.88023,2.01966 -1.33659,3.13532 -0.45636,1.11566 -0.93812,2.2666 -1.0706,2.55764 -0.66842,1.46852 -1.495687,3.73138 -1.495687,4.09122 v 0.40669 h 10.057017 10.05702 z m 4.51352,0.92604 c -0.46818,-0.46818 -0.44484,-1.05606 0.0882,-2.22139 0.24254,-0.53023 0.44097,-1.0092 0.44097,-1.06436 0,-0.1606 1.68428,-4.29271 2.27912,-5.59146 0.29871,-0.65219 0.54311,-1.22132 0.54311,-1.26475 0,-0.0434 0.18933,-0.49784 0.42075,-1.00981 0.92238,-2.04065 1.16675,-2.607 1.16675,-2.70414 0,-0.0558 0.19843,-0.53524 0.44097,-1.06548 0.24253,-0.53023 0.44097,-0.99923 0.44097,-1.04221 0,-0.043 0.20797,-0.53672 0.46216,-1.0972 0.74932,-1.65225 0.94895,-2.1241 0.94895,-2.24295 0,-0.0617 0.40484,-0.96255 0.89965,-2.00181 0.4948,-1.03927 1.12672,-2.45936 1.40426,-3.15576 0.27754,-0.69639 0.67569,-1.64889 0.88477,-2.11666 0.20908,-0.46777 0.48312,-1.08861 0.60898,-1.37966 0.12585,-0.29104 0.42604,-0.96573 0.66709,-1.4993 0.24104,-0.53358 0.65285,-1.48608 0.91511,-2.11667 0.26227,-0.63059 0.66722,-1.5656 0.89989,-2.0778 0.23266,-0.51219 0.42303,-0.9639 0.42303,-1.00379 0,-0.0399 0.30597,-0.73207 0.67994,-1.53817 0.37397,-0.80611 0.73834,-1.65003 0.80971,-1.87537 l 0.12977,-0.40971 -4.02881,0.11469 -4.02881,0.11469 -1.29457,0.6313 c -1.36438,0.66533 -1.64454,0.97093 -2.62953,2.86833 -0.56048,1.07966 -1.11227,1.46785 -1.88515,1.32621 -1.4012,-0.25677 -1.47186,-1.126 -0.36166,-4.44879 0.43804,-1.31105 0.94977,-2.96914 1.13717,-3.68463 0.30258,-1.15521 0.95356,-2.87515 1.09917,-2.90408 0.49646,-0.0986 18.11828,-0.13081 19.18593,-0.035 1.35557,0.12161 1.51654,0.17591 1.74838,0.58975 0.23209,0.41428 0.21063,0.59104 -0.2356,1.94028 -0.27003,0.81646 -0.64799,1.84166 -0.83992,2.27822 -0.19192,0.43657 -0.41609,0.9525 -0.49814,1.14653 -0.44038,1.04142 -0.89705,2.09568 -1.4899,3.43958 -0.36378,0.82462 -0.77089,1.75728 -0.9047,2.07257 -0.26944,0.63491 -0.41179,0.96195 -1.478,3.39549 -1.0636,2.42759 -1.15219,2.63451 -1.58589,3.70417 -0.21635,0.53357 -0.58302,1.38921 -0.81485,1.9014 -0.23181,0.5122 -0.42149,0.96644 -0.42149,1.00942 0,0.043 -0.18953,0.49703 -0.42119,1.00901 -0.23165,0.51197 -0.60095,1.40711 -0.82066,1.98919 -0.21971,0.58209 -0.5858,1.47741 -0.81353,1.98961 -0.22773,0.51219 -0.41406,0.9665 -0.41406,1.00957 0,0.0431 -0.25807,0.61618 -0.57349,1.27359 -0.31543,0.65741 -0.6809,1.51279 -0.81217,1.90084 -0.13126,0.38806 -0.41945,1.10243 -0.64041,1.5875 -0.22096,0.48507 -0.50351,1.15976 -0.6279,1.49931 -0.30809,0.84101 -1.72126,4.20129 -2.03346,4.83523 -0.13914,0.28254 -0.21362,0.55307 -0.16551,0.60118 0.11169,0.11169 4.48359,-0.2531 6.04657,-0.50453 3.03288,-0.48786 3.95307,-0.73499 4.51544,-1.21267 0.50615,-0.42992 1.29682,-1.64494 1.62954,-2.50411 0.57202,-1.47709 1.48676,-2.02391 2.50492,-1.49739 0.93446,0.48322 0.95703,1.01939 0.1428,3.39279 -0.53897,1.57107 -1.31386,4.05066 -1.7014,5.44436 -0.46421,1.66946 -0.61933,2.09878 -0.83694,2.31639 -0.19856,0.19857 -2.0646,0.24125 -10.54739,0.24125 -10.07097,0 -10.31421,-0.008 -10.65893,-0.35278 z m 20.63953,-0.44223 c 0.0832,-0.0514 0.27527,-0.54839 0.42689,-1.10443 0.15162,-0.55604 0.34748,-1.2491 0.43524,-1.54014 0.0878,-0.29105 0.37294,-1.24355 0.63373,-2.11667 0.26078,-0.87313 0.53816,-1.74625 0.61641,-1.94028 0.0782,-0.19403 0.31159,-0.89742 0.51854,-1.5631 0.41408,-1.33196 0.31762,-1.70009 -0.44551,-1.70009 -0.46515,0 -0.74174,0.36953 -1.23779,1.65372 -0.18306,0.47392 -0.72811,1.27555 -1.21413,1.78569 -0.69636,0.73092 -1.08608,0.98267 -1.85208,1.19645 -2.70492,0.75489 -9.17517,1.44351 -10.12793,1.0779 -0.15346,-0.0589 -0.27901,-0.25273 -0.27901,-0.43076 0,-0.29487 3.92408,-9.96014 6.62073,-16.30731 0.12365,-0.29104 0.43889,-1.0451 0.70054,-1.67569 0.26164,-0.63059 0.66608,-1.5656 0.89875,-2.0778 0.23267,-0.5122 0.42303,-0.97369 0.42303,-1.02554 0,-0.0519 0.19844,-0.5281 0.44097,-1.05833 0.24254,-0.53024 0.44098,-0.99586 0.44098,-1.03473 0,-0.0389 0.23044,-0.57229 0.5121,-1.18539 0.28166,-0.61311 0.72645,-1.63068 0.98841,-2.26127 0.26197,-0.63059 0.63801,-1.50371 0.83565,-1.94028 0.19764,-0.43656 0.49637,-1.11125 0.66386,-1.4993 0.16748,-0.38806 0.46699,-1.06274 0.66558,-1.49931 1.50197,-3.30176 2.54673,-6.07357 2.47628,-6.56968 l -0.0565,-0.39768 -9.82838,-0.0456 -9.82839,-0.0456 -0.23853,0.48655 c -0.13119,0.2676 -0.33171,0.80405 -0.44559,1.1921 -0.11389,0.38806 -0.43754,1.49931 -0.71922,2.46945 -0.28168,0.97014 -0.75951,2.47479 -1.06183,3.34366 -0.54795,1.57482 -0.54858,1.58088 -0.20019,1.92926 0.5431,0.54311 1.08036,0.13163 1.85981,-1.42442 0.71485,-1.42707 1.24897,-1.92078 3.03742,-2.80756 l 1.02074,-0.50612 4.19309,-0.0653 c 4.50709,-0.0702 4.71454,-0.0345 4.71454,0.81177 0,0.24438 -0.3175,1.11557 -0.70555,1.93598 -0.38806,0.82041 -0.70556,1.52442 -0.70556,1.56447 0,0.0706 -0.29287,0.7422 -1.16674,2.67553 -0.23142,0.51197 -0.42076,0.96805 -0.42076,1.01349 0,0.0454 -0.27781,0.68407 -0.61736,1.41917 -0.33955,0.7351 -0.61736,1.36845 -0.61736,1.40744 0,0.039 -0.24657,0.60866 -0.54793,1.26594 -0.30137,0.65727 -0.77031,1.75067 -1.04209,2.42976 -0.27179,0.6791 -0.86743,2.02847 -1.32366,2.99861 -0.45622,0.97014 -1.18325,2.63702 -1.61562,3.70417 -0.43237,1.06715 -0.89306,2.1784 -1.02375,2.46944 -0.13069,0.29105 -0.53027,1.24355 -0.88794,2.11667 -0.35768,0.87313 -0.8804,2.08913 -1.16161,2.70224 -0.28121,0.6131 -0.51129,1.1469 -0.51129,1.18621 0,0.0393 -0.23013,0.57392 -0.5114,1.18804 -0.28127,0.61411 -0.96372,2.26313 -1.51657,3.66448 -0.55284,1.40136 -1.1277,2.81052 -1.27747,3.13148 -0.2106,0.45131 -0.22472,0.63119 -0.0623,0.79375 0.32107,0.32137 19.62063,0.52172 20.12673,0.20893 z"
       id="path281" /></g></svg>
